<svg width="104" height="36" viewBox="0 0 104 36" fill="none" xmlns="http://www.w3.org/2000/svg">
<path fill-rule="evenodd" clip-rule="evenodd" d="M90.9968 2.03596e-05C94.6318 -0.00897964 97.6708 2.96702 97.6798 6.64702C97.6828 7.93002 97.2388 9.93302 95.8458 11.349C95.3558 11.848 94.9328 12.147 94.5908 12.371C93.9368 12.802 93.4628 13.102 93.7288 13.821C93.9908 14.523 94.7998 14.303 95.5668 14.126C95.8138 14.065 100.625 12.888 100.686 12.885C101.979 12.634 103.229 13.459 103.536 14.74L103.93 16.385C104.239 17.665 103.5 18.979 102.239 19.358C102.19 19.38 97.8668 20.445 97.0508 20.646L96.9178 20.679C95.9188 20.939 95.3358 21.442 95.3388 22.418C95.3398 22.853 95.5898 23.326 95.8978 23.718L95.9288 23.758C96.3858 24.327 101.632 30.878 101.66 30.93C102.035 31.4447 102.2 32.0829 102.122 32.715C102.043 33.347 101.727 33.9255 101.238 34.333C101.235 34.337 99.9528 35.393 99.9398 35.403C99.4531 35.806 98.8289 36.0041 98.199 35.9554C97.569 35.9067 96.9827 35.615 96.5638 35.142C96.5398 35.122 95.6378 34.01 94.6948 32.845L94.3618 32.433C93.5308 31.407 92.7448 30.433 92.5788 30.226C92.2008 29.76 91.7258 29.048 91.0678 29.051C90.4118 29.053 89.9398 29.767 89.5638 30.235L87.1318 33.273L86.8158 33.667C86.1488 34.498 85.6208 35.154 85.6038 35.169C85.187 35.6444 84.6019 35.9394 83.9719 35.9916C83.3418 36.0439 82.7161 35.8493 82.2268 35.449C82.2148 35.441 80.9278 34.386 80.9248 34.385C80.4342 33.9796 80.1159 33.403 80.0342 32.7718C79.9525 32.1406 80.1136 31.502 80.4848 30.985C80.4978 30.959 81.6928 29.448 82.9878 27.812L83.5458 27.108C84.9088 25.386 86.2128 23.743 86.2128 23.743C86.5178 23.349 86.7668 22.875 86.7648 22.44C86.7618 21.464 86.1778 20.964 85.1768 20.708L82.7788 20.13L82.2828 20.01C81.4711 19.816 80.6604 19.6176 79.8508 19.415C78.5868 19.043 77.8428 17.732 78.1438 16.45L78.3018 15.775L78.3728 15.47L78.5298 14.802C78.8308 13.52 80.0768 12.689 81.3708 12.932C81.4308 12.936 86.2478 14.09 86.4948 14.148C87.2628 14.321 88.0748 14.538 88.3318 13.834C88.5938 13.114 88.1188 12.816 87.4628 12.389C87.0058 12.099 86.5831 11.7582 86.2028 11.373C84.8028 9.96602 84.3478 7.96302 84.3448 6.68002C84.3368 3.00002 87.3618 0.00902036 90.9968 2.03596e-05V2.03596e-05ZM61.1628 11.212C66.0398 11.212 69.9888 15.212 69.9888 20.144C69.9888 25.079 66.0398 29.08 61.1628 29.08C56.2898 29.08 52.3378 25.079 52.3378 20.144C52.3378 15.213 56.2898 11.212 61.1628 11.212V11.212ZM14.6688 12.422C15.1248 11.35 16.3398 10.866 17.3528 11.324L19.2328 12.177C19.9888 12.46 20.8428 13.6 20.1188 14.944L13.0478 27.629C12.853 27.9952 12.5667 28.3047 12.2167 28.5273C11.8667 28.7499 11.465 28.8779 11.0508 28.899H9.34277C8.92867 28.878 8.52709 28.7499 8.17725 28.5273C7.82742 28.3047 7.54128 27.9952 7.34677 27.629L0.274774 14.944C-0.450226 13.6 0.404775 12.46 1.16078 12.177L3.04077 11.324C4.05277 10.866 5.26877 11.35 5.72577 12.421L10.1608 21.45H10.2278L14.6678 12.421L14.6688 12.422ZM45.7378 12.422C46.1938 11.35 47.4088 10.866 48.4208 11.324L50.3018 12.177C51.0578 12.46 51.9118 13.6 51.1888 14.944L44.1158 27.629C43.9213 27.9953 43.6352 28.3048 43.2854 28.5274C42.9355 28.75 42.5339 28.8781 42.1198 28.899H40.4118C39.9975 28.8779 39.5958 28.7499 39.2458 28.5273C38.8959 28.3047 38.6095 27.9952 38.4148 27.629L31.3438 14.944C30.6178 13.6 31.4738 12.46 32.2298 12.177L34.1098 11.324C35.1218 10.866 36.3358 11.35 36.7938 12.421L41.2308 21.45H41.2968L45.7378 12.421V12.422ZM26.6338 11.397C27.8118 11.397 28.7678 12.363 28.7678 13.556V26.741C28.7678 27.934 27.8118 28.9 26.6338 28.9H24.8488C23.6698 28.9 22.7168 27.934 22.7168 26.74V13.557C22.7168 12.364 23.6698 11.397 24.8488 11.397H26.6338V11.397ZM61.1628 16.619C59.2388 16.619 57.6798 18.197 57.6798 20.144C57.6798 22.094 59.2388 23.672 61.1628 23.672C63.0858 23.672 64.6468 22.093 64.6468 20.144C64.6468 18.197 63.0858 16.619 61.1628 16.619ZM25.7258 2.62602C27.6358 2.62602 29.1848 4.19202 29.1848 6.12602C29.1848 8.06102 27.6358 9.62702 25.7258 9.62702C23.8158 9.62702 22.2668 8.06102 22.2668 6.12702C22.2668 4.19302 23.8158 2.62702 25.7268 2.62702L25.7258 2.62602Z" fill="#660099"/>
</svg>
